<svg xmlns="http://www.w3.org/2000/svg" xmlns:xlink="http://www.w3.org/1999/xlink" width="500" zoomAndPan="magnify" viewBox="0 0 375 374.999991" height="500" preserveAspectRatio="xMidYMid meet" version="1.0"><defs><filter x="0%" y="0%" width="100%" height="100%" id="id1"><feColorMatrix values="0 0 0 0 1 0 0 0 0 1 0 0 0 0 1 0 0 0 1 0" color-interpolation-filters="sRGB"/></filter><g/><clipPath id="id2"><path d="M 72.101562 73 L 285.851562 73 L 285.851562 284.222656 L 72.101562 284.222656 Z M 72.101562 73 " clip-rule="nonzero"/></clipPath><mask id="id3"><g filter="url(#id1)"><rect x="-37.5" width="450" fill="#000000" y="-37.499999" height="449.999989" fill-opacity="0.8"/></g></mask><clipPath id="id4"><path d="M 7 11 L 213.851562 11 L 213.851562 209 L 7 209 Z M 7 11 " clip-rule="nonzero"/></clipPath><clipPath id="id5"><path d="M 54 196 L 101 196 L 101 211.222656 L 54 211.222656 Z M 54 196 " clip-rule="nonzero"/></clipPath><clipPath id="id6"><path d="M 0.71875 0.199219 L 168 0.199219 L 168 194 L 0.71875 194 Z M 0.71875 0.199219 " clip-rule="nonzero"/></clipPath><clipPath id="id7"><rect x="0" width="214" y="0" height="212"/></clipPath><clipPath id="id8"><path d="M 139 149 L 187 149 L 187 235.601562 L 139 235.601562 Z M 139 149 " clip-rule="nonzero"/></clipPath><clipPath id="id9"><path d="M 107.464844 120.851562 L 140 120.851562 L 140 235.601562 L 107.464844 235.601562 Z M 107.464844 120.851562 " clip-rule="nonzero"/></clipPath><clipPath id="id10"><path d="M 185 158 L 214.714844 158 L 214.714844 235.601562 L 185 235.601562 Z M 185 158 " clip-rule="nonzero"/></clipPath><clipPath id="id11"><path d="M 124.207031 198.550781 L 249.457031 198.550781 L 249.457031 251.800781 L 124.207031 251.800781 Z M 124.207031 198.550781 " clip-rule="nonzero"/></clipPath><clipPath id="id12"><path d="M 179.152344 171 L 209 171 L 209 197 L 179.152344 197 Z M 179.152344 171 " clip-rule="nonzero"/></clipPath><clipPath id="id13"><path d="M 192 154.054688 L 220 154.054688 L 220 172 L 192 172 Z M 192 154.054688 " clip-rule="nonzero"/></clipPath><clipPath id="id14"><path d="M 203 155 L 266.902344 155 L 266.902344 202.804688 L 203 202.804688 Z M 203 155 " clip-rule="nonzero"/></clipPath><clipPath id="id15"><path d="M 179.964844 225.203125 L 186.371094 225.203125 L 186.371094 231.609375 L 179.964844 231.609375 Z M 179.964844 225.203125 " clip-rule="nonzero"/></clipPath><clipPath id="id16"><path d="M 187.652344 225.203125 L 194.0625 225.203125 L 194.0625 231.609375 L 187.652344 231.609375 Z M 187.652344 225.203125 " clip-rule="nonzero"/></clipPath><clipPath id="id17"><path d="M 179.964844 232.957031 L 186.371094 232.957031 L 186.371094 239.363281 L 179.964844 239.363281 Z M 179.964844 232.957031 " clip-rule="nonzero"/></clipPath><clipPath id="id18"><path d="M 187.652344 232.957031 L 194.0625 232.957031 L 194.0625 239.363281 L 187.652344 239.363281 Z M 187.652344 232.957031 " clip-rule="nonzero"/></clipPath></defs><g clip-path="url(#id2)"><g mask="url(#id3)"><g transform="matrix(1, 0, 0, 1, 72, 73)"><g clip-path="url(#id7)"><g clip-path="url(#id4)"><path fill="#ffffff" d="M 197.289062 83.101562 C 193.382812 71.441406 187.304688 60.558594 179.402344 51.246094 C 171.5 41.847656 161.773438 34.011719 150.832031 28.355469 C 139.886719 22.613281 127.730469 19.128906 115.226562 18.171875 C 102.71875 17.214844 89.953125 18.695312 77.96875 22.960938 C 77.96875 23.046875 77.96875 23.132812 77.796875 23.308594 C 77.449219 23.65625 76.753906 24.089844 75.886719 24.441406 C 75.019531 24.875 74.0625 25.222656 73.109375 25.570312 C 67.808594 27.484375 62.6875 30.011719 57.738281 32.882812 C 48.878906 38.714844 41.238281 46.199219 34.984375 54.640625 C 36.199219 52.902344 37.589844 51.332031 38.890625 49.679688 C 40.28125 48.113281 41.671875 46.546875 43.148438 45.066406 C 46.011719 42.019531 49.226562 39.324219 52.527344 36.886719 C 53.480469 36.101562 54.4375 35.492188 55.132812 35.144531 C 55.828125 34.796875 56.261719 34.710938 56.347656 34.972656 C 56.347656 35.230469 56 35.667969 55.304688 36.363281 C 54.699219 37.058594 53.742188 37.84375 52.785156 38.625 C 44.101562 45.503906 36.375 54.640625 30.730469 64.5625 C 24.996094 74.484375 21.351562 85.191406 19.003906 94.941406 C 17.355469 107.648438 18.570312 120.617188 22.304688 132.539062 C 26.039062 144.464844 32.378906 155.429688 40.457031 164.394531 C 48.53125 173.359375 58.429688 180.496094 69.027344 185.195312 C 79.621094 189.898438 90.996094 192.246094 102.027344 192.332031 C 102.894531 192.332031 103.9375 192.421875 104.371094 192.59375 C 104.976562 192.769531 104.804688 192.941406 104.023438 192.941406 C 92.472656 193.464844 80.230469 191.464844 68.503906 186.503906 C 62.6875 183.976562 56.957031 180.84375 51.65625 176.929688 C 46.359375 173.011719 41.324219 168.398438 36.894531 163.175781 C 32.464844 157.953125 28.558594 152.210938 25.433594 145.855469 C 22.304688 139.589844 19.789062 132.886719 18.136719 125.835938 C 16.574219 118.789062 15.792969 111.5625 15.878906 104.164062 L 15.878906 102.773438 L 15.964844 101.378906 L 16.140625 98.59375 C 16.3125 96.765625 16.488281 94.941406 16.746094 93.113281 C 17.355469 89.457031 17.964844 85.800781 19.003906 82.230469 L 19.699219 79.621094 L 20.570312 77.011719 C 21.089844 75.269531 21.785156 73.617188 22.480469 71.960938 C 18.050781 81.363281 15.183594 91.804688 14.230469 102.859375 C 14.488281 103.992188 14.578125 105.820312 14.578125 107.996094 C 14.75 113.21875 15.359375 118.351562 16.3125 123.402344 C 16.3125 123.140625 16.398438 123.050781 16.488281 122.964844 C 16.835938 122.964844 17.441406 124.792969 17.875 126.96875 C 20.570312 139.589844 25.953125 151.511719 33.507812 161.957031 C 33.683594 162.21875 33.855469 162.480469 34.027344 162.65625 C 43.753906 175.273438 56.695312 185.371094 71.195312 191.464844 C 85.699219 197.730469 101.679688 199.992188 117.222656 198.253906 C 118.179688 198.164062 119.132812 197.992188 120.089844 197.90625 C 121.042969 197.730469 122 197.644531 122.953125 197.46875 L 125.820312 196.859375 L 127.296875 196.597656 L 128.6875 196.25 L 131.550781 195.554688 L 134.332031 194.683594 C 136.242188 194.160156 137.976562 193.378906 139.886719 192.769531 C 143.535156 191.289062 147.097656 189.808594 150.484375 187.894531 C 152.21875 187.023438 153.871094 185.980469 155.519531 185.023438 C 156.386719 184.5 157.167969 183.976562 157.953125 183.457031 C 158.734375 182.933594 159.601562 182.410156 160.382812 181.800781 C 173.0625 172.75 183.222656 160.390625 189.820312 146.378906 C 190.082031 145.507812 190.605469 144.375 191.039062 143.855469 C 191.472656 143.246094 191.644531 143.417969 191.386719 144.289062 C 191.558594 144.289062 191.820312 144.203125 191.734375 144.464844 C 187.738281 155.34375 181.746094 165.351562 173.84375 174.144531 C 165.855469 182.847656 155.867188 190.246094 143.882812 195.292969 C 135.632812 198.773438 126.949219 201.039062 118.089844 202.082031 C 127.296875 201.558594 136.066406 199.90625 143.882812 197.730469 C 154.824219 193.292969 164.984375 186.761719 173.582031 178.757812 C 182.179688 170.75 189.386719 161.4375 194.945312 151.425781 L 194.335938 152.121094 C 194.773438 151.253906 195.292969 150.382812 195.726562 149.773438 C 196.160156 149.164062 196.421875 148.726562 196.59375 148.816406 C 196.769531 148.816406 196.769531 149.164062 196.59375 149.859375 C 196.421875 150.46875 196.074219 151.339844 195.554688 152.296875 C 193.296875 157.171875 190.605469 161.957031 187.476562 166.484375 C 184.351562 171.011719 180.789062 175.1875 176.96875 179.191406 C 173.0625 183.109375 168.894531 186.761719 164.378906 189.984375 C 159.863281 193.203125 155 196.078125 149.960938 198.511719 C 129.726562 208.347656 105.847656 210.699219 83.617188 205.214844 C 72.5 202.429688 61.816406 197.730469 52.265625 191.289062 C 42.714844 184.847656 34.203125 176.753906 27.253906 167.441406 C 20.308594 158.128906 15.011719 147.511719 11.625 136.371094 C 8.148438 125.226562 6.847656 113.390625 7.28125 101.640625 C 8.0625 83.015625 14.316406 64.738281 24.824219 49.507812 C 35.246094 34.1875 50.007812 22.003906 66.941406 14.429688 C 69.460938 13.210938 71.890625 12.601562 73.628906 12.167969 C 75.367188 11.820312 76.582031 11.820312 76.667969 12.253906 C 76.753906 13.039062 72.761719 15.039062 67.898438 17.300781 C 51.746094 24.613281 37.851562 36.449219 27.949219 50.984375 C 17.964844 65.519531 11.972656 82.667969 10.929688 100.335938 C 10.496094 108.082031 10.753906 115.914062 12.144531 123.488281 C 13.449219 131.058594 15.707031 138.546875 18.65625 145.59375 C 14.140625 134.453125 11.972656 122.53125 11.972656 110.691406 C 11.710938 106.167969 11.882812 101.640625 12.320312 97.117188 C 12.753906 92.589844 13.621094 88.0625 14.664062 83.539062 C 15.878906 79.097656 17.269531 74.660156 19.09375 70.394531 C 20.917969 66.128906 23 61.953125 25.433594 57.949219 C 31.25 48.199219 38.632812 39.84375 47.054688 33.054688 C 55.480469 26.265625 64.945312 20.871094 75.105469 17.214844 C 85.179688 13.558594 95.859375 11.472656 106.800781 11.121094 C 112.273438 10.949219 117.742188 11.210938 123.214844 11.90625 C 128.6875 12.601562 134.242188 13.820312 139.628906 15.386719 C 150.222656 18.519531 159.601562 23.132812 168.023438 28.53125 C 172.191406 31.316406 176.101562 34.273438 179.835938 37.496094 C 183.484375 40.714844 186.957031 44.195312 190.082031 47.851562 C 193.296875 51.507812 196.160156 55.425781 198.765625 59.515625 C 201.371094 63.605469 203.714844 68.046875 205.800781 72.570312 C 207.796875 77.183594 209.535156 81.972656 210.835938 87.019531 C 212.140625 92.066406 213.09375 97.289062 213.617188 102.773438 C 213.789062 104.6875 213.703125 106.863281 213.441406 107.558594 C 213.355469 107.90625 213.183594 107.90625 213.007812 107.558594 C 212.835938 107.210938 212.75 106.515625 212.660156 105.558594 C 210.925781 84.582031 202.847656 65.609375 190.429688 50.375 C 187.390625 46.546875 183.917969 42.976562 180.269531 39.671875 C 178.445312 37.929688 176.535156 36.449219 174.625 34.796875 C 173.667969 34.011719 172.628906 33.316406 171.671875 32.535156 C 170.71875 31.75 169.589844 31.140625 168.632812 30.359375 C 164.464844 27.574219 160.121094 24.960938 155.519531 22.785156 C 150.917969 20.609375 146.054688 18.695312 141.105469 17.214844 C 130.421875 13.996094 119.480469 12.601562 108.625 12.777344 C 97.769531 13.039062 87.089844 14.953125 76.929688 18.609375 C 66.769531 22.261719 57.214844 27.574219 48.707031 34.449219 C 40.195312 41.324219 32.8125 49.679688 26.996094 59.253906 C 25.433594 61.867188 23.957031 64.476562 22.652344 67.175781 C 24.996094 62.824219 27.601562 58.644531 30.554688 54.816406 C 33.507812 50.984375 36.722656 47.417969 40.109375 44.109375 C 52.960938 30.707031 69.546875 21.394531 87.347656 17.390625 C 105.152344 13.386719 123.996094 14.605469 141.277344 21.046875 C 147.964844 23.570312 154.390625 26.703125 160.296875 30.53125 C 166.289062 34.363281 171.757812 38.886719 176.710938 43.847656 C 178.011719 45.066406 179.140625 46.460938 180.355469 47.765625 C 181.570312 49.070312 182.613281 50.464844 183.742188 51.855469 C 185.914062 54.640625 188 57.601562 189.820312 60.648438 C 193.46875 66.738281 196.507812 73.265625 198.679688 80.230469 C 199.199219 81.972656 199.722656 83.710938 199.808594 85.105469 C 199.984375 86.496094 199.984375 87.542969 199.722656 87.976562 C 199.546875 88.324219 199.113281 87.976562 198.679688 87.105469 C 198.332031 86.234375 197.8125 84.84375 197.289062 83.101562 Z M 70.15625 196.078125 C 63.988281 193.726562 58.085938 190.679688 52.527344 187.023438 C 63.207031 194.511719 75.453125 199.820312 88.21875 202.515625 C 100.984375 205.214844 114.355469 205.300781 127.210938 202.691406 C 117.742188 204.171875 107.929688 204.433594 98.203125 203.386719 C 88.566406 202.257812 79.011719 199.820312 70.15625 196.078125 Z M 70.15625 196.078125 " fill-opacity="1" fill-rule="nonzero"/></g><g clip-path="url(#id5)"><path fill="#ffffff" d="M 99.507812 210.785156 C 91.691406 209.914062 83.960938 208.085938 76.496094 205.652344 C 69.027344 203.214844 61.90625 200.167969 55.304688 196.859375 C 54.695312 196.511719 54.261719 196.425781 54.523438 196.6875 C 54.785156 197.035156 55.480469 197.46875 56.171875 197.816406 C 62.511719 200.949219 69.460938 203.910156 76.667969 206.171875 C 83.875 208.523438 91.519531 210.261719 98.984375 211.132812 C 99.855469 211.222656 100.636719 211.222656 100.722656 211.046875 C 100.898438 211.046875 100.289062 210.871094 99.507812 210.785156 Z M 99.507812 210.785156 " fill-opacity="1" fill-rule="nonzero"/></g><g clip-path="url(#id6)"><path fill="#ffffff" d="M 46.101562 191.726562 C 35.941406 184.9375 26.734375 176.058594 19.441406 165.527344 C 12.230469 154.996094 6.761719 142.808594 3.894531 129.929688 C 1.03125 117.046875 0.59375 103.46875 2.765625 90.152344 C 4.9375 76.835938 9.800781 63.867188 16.921875 52.378906 C 28.472656 33.578125 45.492188 19.21875 64.859375 10.601562 C 66.074219 10.078125 67.289062 9.46875 68.503906 9.035156 L 72.238281 7.640625 C 74.757812 6.769531 77.277344 5.902344 79.792969 5.292969 C 82.3125 4.507812 84.917969 3.984375 87.523438 3.464844 C 90.128906 3.027344 92.734375 2.507812 95.425781 2.246094 C 98.03125 1.898438 100.722656 1.722656 103.414062 1.546875 C 104.71875 1.460938 106.105469 1.460938 107.410156 1.460938 C 108.710938 1.375 110.101562 1.460938 111.40625 1.460938 C 112.707031 1.546875 114.097656 1.460938 115.398438 1.546875 C 116.703125 1.636719 118.089844 1.722656 119.394531 1.808594 C 120.695312 1.898438 122.085938 2.070312 123.386719 2.246094 C 124.082031 2.332031 124.691406 2.417969 125.386719 2.507812 L 127.382812 2.855469 C 134.417969 3.984375 141.363281 5.8125 147.878906 8.164062 C 154.476562 10.511719 160.644531 13.386719 166.460938 16.605469 C 167.417969 17.128906 168.113281 17.390625 167.851562 17.042969 C 167.503906 16.605469 166.546875 15.910156 165.417969 15.300781 C 153.261719 8.511719 139.886719 3.898438 125.992188 1.808594 C 112.097656 -0.277344 97.855469 0.242188 83.960938 3.375 C 70.15625 6.511719 56.867188 12.429688 45.230469 20.785156 C 33.769531 28.878906 23.78125 39.496094 16.398438 51.769531 C 9.28125 63.433594 4.417969 76.488281 2.332031 89.976562 C 0.160156 103.46875 0.59375 117.222656 3.546875 130.363281 C 6.5 143.507812 12.058594 155.867188 19.613281 166.484375 C 27.082031 177.101562 36.546875 186.066406 46.96875 192.855469 C 47.488281 193.203125 47.921875 193.292969 47.75 193.03125 C 47.402344 192.683594 46.621094 192.074219 46.101562 191.726562 Z M 46.101562 191.726562 " fill-opacity="1" fill-rule="nonzero"/></g><path fill="#ffffff" d="M 84.398438 4.332031 C 77.015625 6.160156 69.808594 8.859375 62.945312 12.253906 C 56.171875 15.648438 49.660156 19.738281 43.753906 24.527344 C 37.761719 29.226562 32.207031 34.621094 27.34375 40.453125 C 22.390625 46.371094 18.050781 52.8125 14.316406 59.691406 C 10.234375 67.085938 7.28125 75.007812 5.371094 83.191406 C 3.460938 91.371094 2.503906 99.902344 2.941406 108.691406 C 3.113281 114.523438 3.980469 120.09375 5.109375 125.578125 C 6.238281 130.972656 7.804688 136.195312 9.625 141.242188 C 10.496094 143.765625 11.625 146.292969 12.667969 148.726562 C 13.273438 149.945312 13.796875 151.164062 14.402344 152.382812 C 15.011719 153.601562 15.617188 154.820312 16.3125 156.039062 C 18.917969 160.828125 21.785156 165.527344 25.171875 170.140625 C 25.605469 170.75 26.125 171.269531 26.386719 171.359375 C 26.472656 171.269531 26.214844 170.835938 25.777344 170.226562 C 18.65625 160.21875 13.101562 149.511719 9.28125 138.195312 C 5.546875 126.882812 3.632812 114.871094 3.894531 102.425781 C 4.070312 96.679688 4.761719 90.9375 5.890625 85.277344 C 7.019531 79.796875 8.671875 74.3125 10.753906 69.003906 C 14.925781 58.382812 20.917969 48.636719 28.125 40.019531 C 42.800781 22.871094 62.601562 10.511719 84.65625 4.769531 C 85.613281 4.507812 86.132812 4.332031 86.132812 4.160156 C 86.046875 4.074219 85.265625 4.160156 84.398438 4.332031 Z M 84.398438 4.332031 " fill-opacity="1" fill-rule="nonzero"/><path fill="#ffffff" d="M 21.003906 99.117188 C 20.222656 106.339844 20.308594 113.828125 21.4375 121.136719 C 22.566406 128.449219 24.648438 135.671875 27.691406 142.375 C 30.730469 149.078125 34.636719 155.167969 39.066406 160.476562 C 43.582031 165.789062 48.617188 170.226562 53.742188 173.796875 C 54.261719 174.144531 54.4375 174.144531 54.175781 173.707031 C 53.914062 173.359375 53.222656 172.75 52.785156 172.402344 C 47.75 168.832031 42.886719 164.394531 38.71875 159.085938 C 34.550781 153.777344 30.816406 147.769531 28.035156 141.242188 C 25.257812 134.714844 23.261719 127.753906 22.21875 120.703125 C 21.261719 113.652344 21.089844 106.429688 21.785156 99.464844 C 21.871094 98.160156 21.957031 96.941406 21.699219 96.765625 C 21.523438 96.765625 21.175781 97.726562 21.003906 99.117188 Z M 21.003906 99.117188 " fill-opacity="1" fill-rule="nonzero"/><path fill="#ffffff" d="M 107.324219 208.695312 C 99.507812 208.609375 91.691406 207.566406 84.050781 205.652344 C 76.496094 203.734375 69.113281 200.863281 62.164062 197.296875 C 55.21875 193.726562 48.792969 189.289062 42.800781 184.328125 C 36.894531 179.367188 31.511719 173.707031 26.734375 167.617188 C 18.136719 155.515625 12.144531 141.765625 9.105469 127.316406 C 8.757812 125.226562 8.152344 123.574219 7.890625 123.660156 C 7.542969 123.660156 7.628906 125.488281 7.976562 127.578125 C 9.367188 134.976562 11.625 142.199219 14.578125 149.078125 C 14.402344 148.902344 14.230469 148.902344 14.230469 148.988281 C 3.460938 124.792969 2.503906 96.332031 11.710938 71.265625 C 12.230469 69.871094 12.492188 68.828125 12.320312 68.742188 C 12.144531 68.65625 11.539062 69.699219 11.015625 71.089844 C 6.152344 84.148438 4.070312 98.246094 4.761719 112.085938 C 5.457031 125.925781 9.019531 139.589844 15.097656 151.949219 C 15.445312 152.90625 15.964844 153.949219 16.574219 155.082031 C 19.265625 160.21875 22.390625 165.089844 25.953125 169.617188 C 29.425781 174.144531 33.335938 178.320312 37.503906 182.238281 C 45.839844 189.984375 55.480469 196.335938 66.074219 201.039062 C 73.628906 204.34375 81.445312 206.871094 89.347656 208.4375 C 97.335938 210.003906 105.324219 210.613281 113.402344 210.4375 C 121.476562 210.261719 129.46875 209.046875 137.195312 206.871094 C 145.011719 204.691406 152.566406 201.648438 159.601562 197.644531 C 170.804688 191.289062 180.355469 182.5 188.433594 172.402344 C 191.820312 168.226562 195.03125 163.613281 197.726562 159 C 199.113281 156.648438 200.242188 154.296875 201.371094 151.949219 C 202.414062 149.511719 203.371094 147.160156 204.152344 144.8125 C 208.320312 131.757812 209.015625 119.398438 207.796875 107.90625 C 207.710938 107.210938 207.625 107.125 207.539062 107.648438 C 207.449219 108.082031 207.363281 109.039062 207.449219 109.5625 C 207.972656 115.304688 207.972656 121.398438 207.191406 127.578125 C 206.496094 133.671875 205.191406 139.851562 203.542969 145.59375 C 199.199219 156.476562 193.035156 166.570312 185.480469 175.363281 C 177.839844 184.152344 168.894531 191.636719 158.90625 197.644531 C 154.910156 199.730469 150.742188 201.558594 146.574219 202.953125 C 142.40625 204.433594 138.152344 205.476562 133.894531 206.433594 C 125.210938 208 116.441406 208.871094 107.324219 208.695312 Z M 107.324219 208.695312 " fill-opacity="1" fill-rule="nonzero"/></g></g></g></g><g fill="#2a2e30" fill-opacity="1"><g transform="translate(186.971514, 215.447345)"><g/></g></g><g fill="#2a2e30" fill-opacity="1"><g transform="translate(171.513332, 254.619739)"><g><path d="M 5.046875 0.03125 C 5.003906 0.0390625 4.960938 0.046875 4.921875 0.046875 C 4.867188 0.046875 4.789062 0.0390625 4.6875 0.03125 C 4.582031 0.0078125 4.503906 0 4.453125 0 L 0.28125 0 L 0.28125 -0.203125 C 0.363281 -0.242188 0.4375 -0.273438 0.5 -0.296875 C 0.570312 -0.316406 0.65625 -0.332031 0.75 -0.34375 C 0.851562 -0.363281 0.929688 -0.390625 0.984375 -0.421875 C 1.035156 -0.453125 1.070312 -0.515625 1.09375 -0.609375 C 1.125 -0.710938 1.140625 -0.867188 1.140625 -1.078125 L 1.140625 -4.15625 C 1.140625 -4.363281 1.125 -4.515625 1.09375 -4.609375 C 1.0625 -4.710938 1.007812 -4.785156 0.9375 -4.828125 C 0.875 -4.867188 0.765625 -4.910156 0.609375 -4.953125 C 0.585938 -4.960938 0.539062 -4.976562 0.46875 -5 C 0.40625 -5.019531 0.34375 -5.046875 0.28125 -5.078125 L 0.28125 -5.28125 L 4.421875 -5.28125 C 4.460938 -5.28125 4.503906 -5.28125 4.546875 -5.28125 C 4.585938 -5.289062 4.617188 -5.300781 4.640625 -5.3125 C 4.722656 -5.320312 4.796875 -5.328125 4.859375 -5.328125 C 4.921875 -5.328125 4.972656 -5.320312 5.015625 -5.3125 L 5.015625 -4.046875 L 4.796875 -4.03125 C 4.753906 -4.082031 4.71875 -4.132812 4.6875 -4.1875 C 4.65625 -4.25 4.625 -4.328125 4.59375 -4.421875 C 4.53125 -4.554688 4.472656 -4.660156 4.421875 -4.734375 C 4.367188 -4.804688 4.289062 -4.863281 4.1875 -4.90625 C 4.039062 -4.945312 3.851562 -4.972656 3.625 -4.984375 C 3.40625 -5.003906 3.144531 -5.015625 2.84375 -5.015625 C 2.5 -5.015625 2.226562 -5 2.03125 -4.96875 C 2.019531 -4.851562 2.015625 -4.71875 2.015625 -4.5625 L 2.015625 -2.90625 L 3.1875 -2.90625 C 3.394531 -2.90625 3.550781 -2.921875 3.65625 -2.953125 C 3.757812 -2.984375 3.84375 -3.035156 3.90625 -3.109375 C 3.96875 -3.191406 4.046875 -3.320312 4.140625 -3.5 L 4.203125 -3.609375 L 4.4375 -3.609375 L 4.4375 -1.875 L 4.203125 -1.859375 C 4.117188 -2.097656 4.007812 -2.28125 3.875 -2.40625 C 3.738281 -2.539062 3.5625 -2.609375 3.34375 -2.609375 L 2.015625 -2.609375 L 2.015625 -1.234375 C 2.015625 -0.953125 2.046875 -0.742188 2.109375 -0.609375 C 2.179688 -0.472656 2.28125 -0.382812 2.40625 -0.34375 C 2.53125 -0.300781 2.707031 -0.28125 2.9375 -0.28125 L 3.34375 -0.28125 C 3.675781 -0.28125 3.96875 -0.316406 4.21875 -0.390625 C 4.46875 -0.472656 4.648438 -0.632812 4.765625 -0.875 L 4.828125 -1 C 4.878906 -1.101562 4.914062 -1.179688 4.9375 -1.234375 C 4.96875 -1.285156 5.007812 -1.335938 5.0625 -1.390625 L 5.3125 -1.390625 Z M 5.046875 0.03125 "/></g></g></g><g fill="#2a2e30" fill-opacity="1"><g transform="translate(177.136238, 254.619739)"><g><path d="M 2.796875 -2.5625 C 2.765625 -2.5625 2.703125 -2.5625 2.609375 -2.5625 C 2.535156 -2.832031 2.414062 -3.050781 2.25 -3.21875 C 2.09375 -3.394531 1.894531 -3.484375 1.65625 -3.484375 C 1.476562 -3.484375 1.335938 -3.441406 1.234375 -3.359375 C 1.140625 -3.273438 1.09375 -3.15625 1.09375 -3 C 1.09375 -2.882812 1.132812 -2.78125 1.21875 -2.6875 C 1.300781 -2.59375 1.398438 -2.507812 1.515625 -2.4375 C 1.640625 -2.363281 1.796875 -2.28125 1.984375 -2.1875 C 2.023438 -2.164062 2.09375 -2.128906 2.1875 -2.078125 C 2.488281 -1.910156 2.707031 -1.742188 2.84375 -1.578125 C 2.988281 -1.410156 3.0625 -1.207031 3.0625 -0.96875 C 3.0625 -0.738281 3.003906 -0.546875 2.890625 -0.390625 C 2.785156 -0.234375 2.632812 -0.113281 2.4375 -0.03125 C 2.238281 0.0390625 2.015625 0.078125 1.765625 0.078125 C 1.546875 0.078125 1.320312 0.0507812 1.09375 0 C 0.863281 -0.0507812 0.675781 -0.125 0.53125 -0.21875 L 0.53125 -1.203125 C 0.632812 -1.210938 0.707031 -1.21875 0.75 -1.21875 C 0.8125 -0.914062 0.921875 -0.671875 1.078125 -0.484375 C 1.234375 -0.296875 1.453125 -0.203125 1.734375 -0.203125 C 1.929688 -0.203125 2.09375 -0.25 2.21875 -0.34375 C 2.351562 -0.445312 2.421875 -0.582031 2.421875 -0.75 C 2.421875 -0.84375 2.390625 -0.925781 2.328125 -1 C 2.273438 -1.082031 2.195312 -1.15625 2.09375 -1.21875 C 2 -1.28125 1.859375 -1.363281 1.671875 -1.46875 C 1.421875 -1.601562 1.226562 -1.710938 1.09375 -1.796875 C 0.882812 -1.921875 0.726562 -2.0625 0.625 -2.21875 C 0.519531 -2.375 0.46875 -2.5625 0.46875 -2.78125 C 0.46875 -2.988281 0.519531 -3.164062 0.625 -3.3125 C 0.738281 -3.457031 0.882812 -3.566406 1.0625 -3.640625 C 1.238281 -3.722656 1.441406 -3.765625 1.671875 -3.765625 C 1.878906 -3.765625 2.078125 -3.738281 2.265625 -3.6875 C 2.453125 -3.632812 2.625 -3.5625 2.78125 -3.46875 Z M 2.796875 -2.5625 "/></g></g></g><g fill="#2a2e30" fill-opacity="1"><g transform="translate(180.600856, 254.619739)"><g><path d="M 1.484375 -1.28125 C 1.484375 -1 1.492188 -0.796875 1.515625 -0.671875 C 1.535156 -0.554688 1.582031 -0.472656 1.65625 -0.421875 C 1.726562 -0.367188 1.851562 -0.34375 2.03125 -0.34375 C 2.125 -0.34375 2.222656 -0.351562 2.328125 -0.375 C 2.429688 -0.394531 2.519531 -0.414062 2.59375 -0.4375 L 2.625 -0.140625 C 2.488281 -0.078125 2.347656 -0.0234375 2.203125 0.015625 C 2.066406 0.0546875 1.898438 0.078125 1.703125 0.078125 C 1.441406 0.078125 1.238281 0.0351562 1.09375 -0.046875 C 0.957031 -0.128906 0.863281 -0.269531 0.8125 -0.46875 C 0.757812 -0.664062 0.734375 -0.9375 0.734375 -1.28125 L 0.734375 -3.34375 L 0.125 -3.34375 L 0.125 -3.484375 C 0.3125 -3.554688 0.46875 -3.640625 0.59375 -3.734375 C 0.71875 -3.835938 0.816406 -3.941406 0.890625 -4.046875 C 0.972656 -4.148438 1.070312 -4.289062 1.1875 -4.46875 C 1.238281 -4.550781 1.273438 -4.601562 1.296875 -4.625 C 1.328125 -4.644531 1.359375 -4.65625 1.390625 -4.65625 C 1.410156 -4.65625 1.429688 -4.644531 1.453125 -4.625 C 1.472656 -4.601562 1.484375 -4.5625 1.484375 -4.5 L 1.484375 -3.65625 L 2.5 -3.65625 L 2.5 -3.34375 L 1.484375 -3.34375 Z M 1.484375 -1.28125 "/></g></g></g><g fill="#2a2e30" fill-opacity="1"><g transform="translate(183.375797, 254.619739)"><g><path d="M 1.6875 -0.46875 C 1.6875 -0.375 1.660156 -0.285156 1.609375 -0.203125 C 1.554688 -0.117188 1.488281 -0.0507812 1.40625 0 C 1.320312 0.0507812 1.226562 0.078125 1.125 0.078125 C 1.019531 0.078125 0.925781 0.0507812 0.84375 0 C 0.757812 -0.0390625 0.691406 -0.101562 0.640625 -0.1875 C 0.585938 -0.28125 0.5625 -0.375 0.5625 -0.46875 C 0.5625 -0.5625 0.585938 -0.648438 0.640625 -0.734375 C 0.691406 -0.828125 0.757812 -0.894531 0.84375 -0.9375 C 0.925781 -0.988281 1.019531 -1.015625 1.125 -1.015625 C 1.226562 -1.015625 1.320312 -0.988281 1.40625 -0.9375 C 1.488281 -0.894531 1.554688 -0.828125 1.609375 -0.734375 C 1.660156 -0.648438 1.6875 -0.5625 1.6875 -0.46875 Z M 1.6875 -0.46875 "/></g></g></g><g fill="#2a2e30" fill-opacity="1"><g transform="translate(185.63145, 254.619739)"><g/></g></g><g fill="#2a2e30" fill-opacity="1"><g transform="translate(187.578776, 254.619739)"><g><path d="M 2.390625 -0.59375 C 2.523438 -0.59375 2.628906 -0.613281 2.703125 -0.65625 C 2.785156 -0.707031 2.835938 -0.757812 2.859375 -0.8125 C 2.890625 -0.875 2.921875 -0.945312 2.953125 -1.03125 C 2.972656 -1.125 2.992188 -1.1875 3.015625 -1.21875 C 3.046875 -1.257812 3.097656 -1.28125 3.171875 -1.28125 L 3.28125 -1.265625 L 3.078125 0 L 0.53125 0 L 0.484375 -0.15625 L 1.640625 -1.515625 C 1.753906 -1.660156 1.859375 -1.84375 1.953125 -2.0625 C 2.054688 -2.289062 2.109375 -2.5 2.109375 -2.6875 C 2.109375 -2.863281 2.054688 -3.003906 1.953125 -3.109375 C 1.859375 -3.222656 1.695312 -3.28125 1.46875 -3.28125 C 1.300781 -3.28125 1.125 -3.25 0.9375 -3.1875 C 0.757812 -3.132812 0.617188 -3.070312 0.515625 -3 L 0.4375 -3.296875 C 0.582031 -3.441406 0.78125 -3.554688 1.03125 -3.640625 C 1.28125 -3.722656 1.535156 -3.765625 1.796875 -3.765625 C 2.003906 -3.765625 2.195312 -3.722656 2.375 -3.640625 C 2.550781 -3.554688 2.691406 -3.4375 2.796875 -3.28125 C 2.898438 -3.132812 2.953125 -2.960938 2.953125 -2.765625 C 2.953125 -2.566406 2.882812 -2.347656 2.75 -2.109375 C 2.613281 -1.867188 2.40625 -1.601562 2.125 -1.3125 L 1.421875 -0.59375 Z M 2.390625 -0.59375 "/></g></g></g><g fill="#2a2e30" fill-opacity="1"><g transform="translate(191.315215, 254.619739)"><g><path d="M 0.34375 -1.84375 C 0.34375 -2.175781 0.414062 -2.488281 0.5625 -2.78125 C 0.71875 -3.070312 0.945312 -3.304688 1.25 -3.484375 C 1.550781 -3.671875 1.914062 -3.765625 2.34375 -3.765625 C 2.769531 -3.765625 3.132812 -3.671875 3.4375 -3.484375 C 3.738281 -3.296875 3.960938 -3.054688 4.109375 -2.765625 C 4.265625 -2.472656 4.34375 -2.160156 4.34375 -1.828125 C 4.34375 -1.492188 4.265625 -1.179688 4.109375 -0.890625 C 3.960938 -0.609375 3.738281 -0.375 3.4375 -0.1875 C 3.132812 -0.0078125 2.773438 0.078125 2.359375 0.078125 C 1.921875 0.078125 1.550781 -0.0078125 1.25 -0.1875 C 0.945312 -0.375 0.71875 -0.613281 0.5625 -0.90625 C 0.414062 -1.195312 0.34375 -1.507812 0.34375 -1.84375 Z M 1.15625 -1.84375 C 1.15625 -1.582031 1.195312 -1.332031 1.28125 -1.09375 C 1.363281 -0.851562 1.488281 -0.660156 1.65625 -0.515625 C 1.832031 -0.367188 2.039062 -0.296875 2.28125 -0.296875 C 2.550781 -0.296875 2.78125 -0.367188 2.96875 -0.515625 C 3.15625 -0.660156 3.289062 -0.851562 3.375 -1.09375 C 3.46875 -1.332031 3.515625 -1.585938 3.515625 -1.859375 C 3.515625 -2.128906 3.46875 -2.390625 3.375 -2.640625 C 3.289062 -2.890625 3.164062 -3.09375 3 -3.25 C 2.832031 -3.40625 2.632812 -3.484375 2.40625 -3.484375 C 2.132812 -3.484375 1.90625 -3.40625 1.71875 -3.25 C 1.53125 -3.09375 1.390625 -2.890625 1.296875 -2.640625 C 1.203125 -2.390625 1.15625 -2.125 1.15625 -1.84375 Z M 1.15625 -1.84375 "/></g></g></g><g fill="#2a2e30" fill-opacity="1"><g transform="translate(196.005026, 254.619739)"><g><path d="M 2.390625 -0.59375 C 2.523438 -0.59375 2.628906 -0.613281 2.703125 -0.65625 C 2.785156 -0.707031 2.835938 -0.757812 2.859375 -0.8125 C 2.890625 -0.875 2.921875 -0.945312 2.953125 -1.03125 C 2.972656 -1.125 2.992188 -1.1875 3.015625 -1.21875 C 3.046875 -1.257812 3.097656 -1.28125 3.171875 -1.28125 L 3.28125 -1.265625 L 3.078125 0 L 0.53125 0 L 0.484375 -0.15625 L 1.640625 -1.515625 C 1.753906 -1.660156 1.859375 -1.84375 1.953125 -2.0625 C 2.054688 -2.289062 2.109375 -2.5 2.109375 -2.6875 C 2.109375 -2.863281 2.054688 -3.003906 1.953125 -3.109375 C 1.859375 -3.222656 1.695312 -3.28125 1.46875 -3.28125 C 1.300781 -3.28125 1.125 -3.25 0.9375 -3.1875 C 0.757812 -3.132812 0.617188 -3.070312 0.515625 -3 L 0.4375 -3.296875 C 0.582031 -3.441406 0.78125 -3.554688 1.03125 -3.640625 C 1.28125 -3.722656 1.535156 -3.765625 1.796875 -3.765625 C 2.003906 -3.765625 2.195312 -3.722656 2.375 -3.640625 C 2.550781 -3.554688 2.691406 -3.4375 2.796875 -3.28125 C 2.898438 -3.132812 2.953125 -2.960938 2.953125 -2.765625 C 2.953125 -2.566406 2.882812 -2.347656 2.75 -2.109375 C 2.613281 -1.867188 2.40625 -1.601562 2.125 -1.3125 L 1.421875 -0.59375 Z M 2.390625 -0.59375 "/></g></g></g><g fill="#2a2e30" fill-opacity="1"><g transform="translate(199.741465, 254.619739)"><g><path d="M 2.390625 -0.59375 C 2.523438 -0.59375 2.628906 -0.613281 2.703125 -0.65625 C 2.785156 -0.707031 2.835938 -0.757812 2.859375 -0.8125 C 2.890625 -0.875 2.921875 -0.945312 2.953125 -1.03125 C 2.972656 -1.125 2.992188 -1.1875 3.015625 -1.21875 C 3.046875 -1.257812 3.097656 -1.28125 3.171875 -1.28125 L 3.28125 -1.265625 L 3.078125 0 L 0.53125 0 L 0.484375 -0.15625 L 1.640625 -1.515625 C 1.753906 -1.660156 1.859375 -1.84375 1.953125 -2.0625 C 2.054688 -2.289062 2.109375 -2.5 2.109375 -2.6875 C 2.109375 -2.863281 2.054688 -3.003906 1.953125 -3.109375 C 1.859375 -3.222656 1.695312 -3.28125 1.46875 -3.28125 C 1.300781 -3.28125 1.125 -3.25 0.9375 -3.1875 C 0.757812 -3.132812 0.617188 -3.070312 0.515625 -3 L 0.4375 -3.296875 C 0.582031 -3.441406 0.78125 -3.554688 1.03125 -3.640625 C 1.28125 -3.722656 1.535156 -3.765625 1.796875 -3.765625 C 2.003906 -3.765625 2.195312 -3.722656 2.375 -3.640625 C 2.550781 -3.554688 2.691406 -3.4375 2.796875 -3.28125 C 2.898438 -3.132812 2.953125 -2.960938 2.953125 -2.765625 C 2.953125 -2.566406 2.882812 -2.347656 2.75 -2.109375 C 2.613281 -1.867188 2.40625 -1.601562 2.125 -1.3125 L 1.421875 -0.59375 Z M 2.390625 -0.59375 "/></g></g></g><path fill="#345c72" d="M 159.191406 157.390625 L 162.042969 157.808594 L 162.042969 162.355469 L 159.191406 161.9375 Z M 177.308594 219.429688 L 180.160156 219.847656 L 180.160156 224.394531 L 177.308594 223.980469 Z M 177.308594 210.945312 L 180.160156 211.363281 L 180.160156 215.914062 L 177.308594 215.496094 Z M 177.308594 202.464844 L 180.160156 202.878906 L 180.160156 207.429688 L 177.308594 207.011719 Z M 171.269531 218.554688 L 174.125 218.972656 L 174.125 223.523438 L 171.269531 223.105469 Z M 171.269531 210.070312 L 174.125 210.488281 L 174.125 215.039062 L 171.269531 214.621094 Z M 171.269531 201.589844 L 174.125 202.007812 L 174.125 206.554688 L 171.269531 206.136719 Z M 165.234375 217.679688 L 168.085938 218.097656 L 168.085938 222.648438 L 165.234375 222.230469 Z M 165.234375 209.199219 L 168.085938 209.617188 L 168.085938 214.164062 L 165.234375 213.746094 Z M 165.234375 200.714844 L 168.085938 201.132812 L 168.085938 205.679688 L 165.234375 205.261719 Z M 159.195312 216.800781 L 162.050781 217.21875 L 162.050781 221.769531 L 159.195312 221.351562 Z M 159.195312 208.316406 L 162.050781 208.734375 L 162.050781 213.285156 L 159.195312 212.867188 Z M 159.195312 199.835938 L 162.050781 200.253906 L 162.050781 204.800781 L 159.195312 204.382812 Z M 177.3125 193.988281 L 180.167969 194.40625 L 180.167969 198.953125 L 177.3125 198.535156 Z M 177.3125 185.503906 L 180.167969 185.921875 L 180.167969 190.472656 L 177.3125 190.054688 Z M 177.3125 177.019531 L 180.167969 177.4375 L 180.167969 181.988281 L 177.3125 181.570312 Z M 177.3125 168.539062 L 180.167969 168.957031 L 180.167969 173.503906 L 177.3125 173.085938 Z M 171.277344 193.113281 L 174.128906 193.53125 L 174.128906 198.082031 L 171.277344 197.664062 Z M 171.277344 184.628906 L 174.128906 185.046875 L 174.128906 189.597656 L 171.277344 189.179688 Z M 171.277344 176.148438 L 174.128906 176.566406 L 174.128906 181.113281 L 171.277344 180.695312 Z M 171.277344 167.664062 L 174.128906 168.082031 L 174.128906 172.628906 L 171.277344 172.210938 Z M 165.238281 192.238281 L 168.089844 192.65625 L 168.089844 197.207031 L 165.238281 196.789062 Z M 165.238281 183.753906 L 168.089844 184.171875 L 168.089844 188.722656 L 165.238281 188.304688 Z M 165.238281 175.273438 L 168.089844 175.691406 L 168.089844 180.238281 L 165.238281 179.820312 Z M 165.238281 166.789062 L 168.089844 167.207031 L 168.089844 171.753906 L 165.238281 171.335938 Z M 159.199219 191.363281 L 162.054688 191.78125 L 162.054688 196.332031 L 159.199219 195.914062 Z M 159.199219 182.882812 L 162.054688 183.300781 L 162.054688 187.847656 L 159.199219 187.429688 Z M 159.199219 174.398438 L 162.054688 174.816406 L 162.054688 179.363281 L 159.199219 178.945312 Z M 159.199219 165.914062 L 162.054688 166.332031 L 162.054688 170.878906 L 159.199219 170.460938 Z M 177.320312 160.066406 L 180.171875 160.484375 L 180.171875 165.035156 L 177.320312 164.617188 Z M 171.28125 159.1875 L 174.132812 159.605469 L 174.132812 164.15625 L 171.28125 163.738281 Z M 165.242188 158.308594 L 168.097656 158.726562 L 168.097656 163.273438 L 165.242188 162.855469 Z M 165.242188 158.308594 " fill-opacity="1" fill-rule="evenodd"/><g clip-path="url(#id8)"><path fill="#345c72" d="M 183.472656 232.3125 L 183.472656 157.601562 L 155.164062 153.347656 L 155.164062 232.3125 L 166.734375 232.3125 L 166.734375 226.804688 L 173.035156 227.359375 L 173.035156 232.3125 Z M 186.632812 156.246094 L 186.632812 235.222656 L 185.050781 235.222656 L 185.050781 235.46875 L 139.007812 235.46875 L 139.007812 168.371094 L 139.378906 167.367188 L 153.308594 150.65625 L 153.878906 149.972656 L 154.75 150.101562 L 185.28125 154.6875 L 186.625 154.894531 L 186.625 156.25 Z M 186.632812 156.246094 " fill-opacity="1" fill-rule="evenodd"/></g><g clip-path="url(#id9)"><path fill="#345c72" d="M 121.230469 182.570312 L 125.769531 182.570312 L 125.769531 178.042969 L 121.230469 178.042969 Z M 115.203125 126.285156 L 117.226562 120.847656 L 129.574219 120.847656 L 131.59375 126.285156 L 139.214844 126.285156 L 139.214844 235.386719 L 107.578125 235.386719 L 107.578125 126.285156 Z M 116.695312 188.292969 L 121.230469 188.292969 L 121.230469 183.765625 L 116.695312 183.765625 Z M 121.230469 164.324219 L 125.769531 164.324219 L 125.769531 159.796875 L 121.230469 159.796875 Z M 121.230469 151.09375 L 125.769531 151.09375 L 125.769531 146.566406 L 121.230469 146.566406 Z M 126.550781 182.566406 L 131.085938 182.566406 L 131.085938 178.035156 L 126.550781 178.035156 Z M 116.695312 177 L 121.230469 177 L 121.230469 172.472656 L 116.695312 172.472656 Z M 127.261719 166.292969 L 127.261719 170.820312 L 131.796875 170.820312 L 131.796875 166.292969 Z M 126.542969 164.320312 L 131.082031 164.320312 L 131.082031 159.792969 L 126.542969 159.792969 Z M 127.261719 157.105469 L 131.796875 157.105469 L 131.796875 152.574219 L 127.261719 152.574219 Z M 126.542969 151.089844 L 131.082031 151.089844 L 131.082031 146.558594 L 126.542969 146.558594 Z M 119.738281 145.074219 L 124.273438 145.074219 L 124.273438 140.542969 L 119.738281 140.542969 Z M 132.570312 172.472656 L 132.570312 177 L 137.109375 177 L 137.109375 172.472656 Z M 132.570312 183.761719 L 132.570312 188.289062 L 137.109375 188.289062 L 137.109375 183.761719 Z M 115.910156 188.289062 L 115.910156 183.761719 L 111.371094 183.761719 L 111.371094 188.289062 Z M 111.371094 177 L 115.910156 177 L 115.910156 172.472656 L 111.371094 172.472656 Z M 111.371094 170.820312 L 115.910156 170.820312 L 115.910156 166.292969 L 111.371094 166.292969 Z M 132.570312 170.820312 L 137.109375 170.820312 L 137.109375 166.292969 L 132.570312 166.292969 Z M 111.371094 157.105469 L 115.910156 157.105469 L 115.910156 152.574219 L 111.371094 152.574219 Z M 132.570312 157.105469 L 137.109375 157.105469 L 137.109375 152.574219 L 132.570312 152.574219 Z M 114.421875 145.070312 L 118.957031 145.070312 L 118.957031 140.539062 L 114.421875 140.539062 Z M 111.371094 139.117188 L 115.910156 139.117188 L 115.910156 134.585938 L 111.371094 134.585938 Z M 127.253906 139.117188 L 131.792969 139.117188 L 131.792969 134.585938 L 127.253906 134.585938 Z M 132.570312 139.117188 L 137.109375 139.117188 L 137.109375 134.585938 L 132.570312 134.585938 Z M 132.570312 139.117188 " fill-opacity="1" fill-rule="evenodd"/></g><g clip-path="url(#id10)"><path fill="#345c72" d="M 197.777344 216.121094 L 202.019531 216.121094 L 202.019531 211.882812 L 197.777344 211.882812 Z M 192.144531 163.488281 L 194.035156 158.40625 L 205.582031 158.40625 L 207.476562 163.488281 L 214.601562 163.488281 L 214.601562 235.601562 L 185.015625 235.601562 L 185.015625 163.488281 Z M 193.539062 221.472656 L 197.78125 221.472656 L 197.78125 217.238281 L 193.539062 217.238281 Z M 197.78125 199.058594 L 202.023438 199.058594 L 202.023438 194.824219 L 197.78125 194.824219 Z M 197.78125 186.6875 L 202.023438 186.6875 L 202.023438 182.449219 L 197.78125 182.449219 Z M 202.753906 216.117188 L 206.996094 216.117188 L 206.996094 211.878906 L 202.753906 211.878906 Z M 193.539062 210.914062 L 197.78125 210.914062 L 197.78125 206.675781 L 193.539062 206.675781 Z M 203.417969 200.898438 L 203.417969 205.128906 L 207.664062 205.128906 L 207.664062 200.898438 Z M 202.75 199.050781 L 206.992188 199.050781 L 206.992188 194.820312 L 202.75 194.820312 Z M 203.417969 192.308594 L 207.664062 192.308594 L 207.664062 188.074219 L 203.417969 188.074219 Z M 202.75 186.679688 L 206.992188 186.679688 L 206.992188 182.445312 L 202.75 182.445312 Z M 196.386719 181.054688 L 200.625 181.054688 L 200.625 176.816406 L 196.386719 176.816406 Z M 208.386719 206.675781 L 208.386719 210.914062 L 212.628906 210.914062 L 212.628906 206.675781 Z M 208.386719 217.234375 L 208.386719 221.464844 L 212.628906 221.464844 L 212.628906 217.234375 Z M 192.808594 221.464844 L 192.808594 217.234375 L 188.5625 217.234375 L 188.5625 221.464844 Z M 188.5625 210.914062 L 192.808594 210.914062 L 192.808594 206.675781 L 188.5625 206.675781 Z M 188.5625 205.136719 L 192.800781 205.136719 L 192.800781 200.902344 L 188.5625 200.902344 Z M 208.382812 205.136719 L 212.625 205.136719 L 212.625 200.902344 L 208.382812 200.902344 Z M 188.5625 192.3125 L 192.800781 192.3125 L 192.800781 188.082031 L 188.5625 188.082031 Z M 208.382812 192.3125 L 212.625 192.3125 L 212.625 188.082031 L 208.382812 188.082031 Z M 191.410156 181.058594 L 195.65625 181.058594 L 195.65625 176.820312 L 191.410156 176.820312 Z M 188.5625 175.492188 L 192.800781 175.492188 L 192.800781 171.253906 L 188.5625 171.253906 Z M 203.410156 175.492188 L 207.65625 175.492188 L 207.65625 171.253906 L 203.410156 171.253906 Z M 208.382812 175.492188 L 212.625 175.492188 L 212.625 171.253906 L 208.382812 171.253906 Z M 208.382812 175.492188 " fill-opacity="1" fill-rule="evenodd"/></g><g clip-path="url(#id11)"><path stroke-linecap="round" transform="matrix(0.220744, 0, 0, 0.22161, 104.639851, 151.73892)" fill="none" stroke-linejoin="round" d="M 650.43252 457.286892 L 650.450216 550.549822 L 615.589373 522.646738 L 615.589373 835.238837 L 131.324479 835.238837 L 131.324479 517.041443 L 93.649994 550.549822 L 95.561147 456.863851 L 128.139225 424.959503 L 128.546229 424.959503 L 128.546229 246.33041 L 187.13722 246.33041 L 187.13722 377.314502 L 371.368815 217.12295 L 650.450216 457.286892 Z M 650.43252 457.286892 " stroke="#000000" stroke-width="10" stroke-opacity="1" stroke-miterlimit="4"/></g><path fill="#ff9e7a" d="M 199.113281 193.820312 L 202.597656 199.164062 L 202.351562 195.980469 L 200.832031 194.0625 L 199.105469 193.820312 Z M 183.640625 191.695312 L 187.125 197.035156 L 186.878906 193.855469 L 185.367188 191.933594 Z M 186.734375 192.117188 L 190.21875 197.457031 L 189.972656 194.277344 L 188.460938 192.355469 Z M 189.828125 192.539062 L 193.3125 197.878906 L 193.066406 194.699219 L 191.554688 192.777344 Z M 192.925781 192.960938 L 196.410156 198.300781 L 196.160156 195.121094 L 194.648438 193.199219 Z M 196.019531 193.382812 L 199.503906 198.722656 L 199.257812 195.542969 L 197.738281 193.621094 L 196.011719 193.382812 Z M 196.019531 193.382812 " fill-opacity="1" fill-rule="evenodd"/><g clip-path="url(#id12)"><path fill="#ff9e7a" d="M 201.992188 193.605469 C 198.253906 184.855469 199.6875 178.917969 206.074219 174.882812 Z M 207.847656 173.871094 C 207.984375 173.796875 208.125 173.726562 208.269531 173.65625 Z M 208.269531 173.65625 L 191.769531 171.390625 C 179.503906 173.632812 176.179688 180.113281 181.804688 190.839844 L 183.902344 193.457031 L 184.609375 193.550781 L 183.242188 191.445312 L 185.46875 191.757812 L 187.070312 193.789062 L 187.078125 193.894531 L 187.707031 193.980469 L 186.335938 191.878906 L 188.566406 192.1875 L 190.164062 194.21875 L 190.171875 194.324219 L 190.800781 194.410156 L 189.433594 192.308594 L 191.660156 192.617188 L 193.257812 194.652344 L 193.265625 194.753906 L 193.894531 194.84375 L 192.527344 192.738281 L 194.753906 193.046875 L 196.351562 195.082031 L 196.359375 195.183594 L 196.988281 195.273438 L 195.621094 193.167969 L 197.855469 193.480469 L 199.453125 195.511719 L 199.464844 195.617188 L 200.089844 195.703125 L 198.714844 193.597656 L 200.949219 193.910156 L 202.550781 195.941406 L 202.558594 196.046875 L 203.703125 196.207031 L 203.796875 191.496094 L 208.285156 173.695312 Z M 182.351562 179.125 L 196.574219 181.078125 C 197.1875 181.164062 197.625 181.738281 197.546875 182.359375 C 197.457031 182.980469 196.886719 183.417969 196.265625 183.332031 L 182.042969 181.378906 C 181.421875 181.292969 180.992188 180.71875 181.070312 180.097656 C 181.160156 179.472656 181.730469 179.035156 182.351562 179.125 Z M 182.835938 183.332031 L 197.050781 185.285156 C 197.671875 185.371094 198.101562 185.945312 198.023438 186.558594 C 197.945312 187.183594 197.363281 187.621094 196.742188 187.53125 L 182.527344 185.578125 C 181.90625 185.492188 181.46875 184.917969 181.554688 184.296875 C 181.644531 183.675781 182.21875 183.246094 182.835938 183.324219 Z M 183.324219 187.539062 L 197.546875 189.492188 C 198.167969 189.582031 198.597656 190.15625 198.515625 190.777344 C 198.429688 191.398438 197.855469 191.835938 197.234375 191.75 L 183.011719 189.796875 C 182.390625 189.707031 181.953125 189.136719 182.042969 188.511719 C 182.128906 187.890625 182.703125 187.460938 183.324219 187.539062 Z M 183.324219 187.539062 " fill-opacity="1" fill-rule="evenodd"/></g><g clip-path="url(#id13)"><path fill="#ff9e7a" d="M 203.632812 163.789062 L 204.695312 166.003906 L 201.976562 168.042969 Z M 219.078125 154.558594 L 214.753906 154.175781 L 201.890625 162.425781 L 199.128906 162.464844 L 192.550781 170.242188 L 202.945312 171.519531 L 219.078125 154.546875 Z M 199.257812 164.59375 L 201.417969 164.632812 L 199.128906 169.015625 L 196.367188 168.671875 Z M 199.257812 164.59375 " fill-opacity="1" fill-rule="evenodd"/></g><g clip-path="url(#id14)"><path fill="#ff9e7a" d="M 236.222656 176.558594 L 234.964844 176.558594 L 232.484375 176.332031 L 228.664062 165.699219 L 219.582031 155.019531 L 203.957031 171.566406 L 210.789062 171.265625 L 210.664062 169.988281 L 218.539062 164.378906 L 218.640625 164.925781 L 224.75 175.097656 L 225.683594 184.75 L 221.617188 189.582031 L 218.164062 202.46875 L 266.886719 202.6875 L 266.800781 190.554688 L 264.121094 187.332031 L 263.476562 173.066406 L 257.691406 168.132812 L 247.734375 168.449219 L 244.972656 184.625 C 238.847656 184.871094 232.460938 184.757812 225.976562 184.757812 L 236.191406 184.757812 L 236.191406 176.558594 Z M 255.792969 185.507812 L 245.933594 185.507812 L 249.683594 170.269531 L 256.210938 170.484375 L 255.785156 185.507812 Z M 259.609375 185.738281 L 258.375 184.558594 L 258.375 171.320312 L 261.535156 173.894531 L 261.375 188.800781 L 259.609375 190.410156 Z M 219.375 158.46875 L 209.78125 167.699219 L 209.3125 167.230469 L 219.121094 157.234375 Z M 227.410156 164.96875 L 219.929688 160.597656 L 218.0625 161.875 L 217.933594 161.019531 L 219.929688 158.804688 L 227.410156 164.957031 Z M 227.410156 164.96875 " fill-opacity="1" fill-rule="evenodd"/></g><g clip-path="url(#id15)"><path fill="#ff9e7a" d="M 179.964844 225.203125 L 186.371094 225.203125 L 186.371094 231.609375 L 179.964844 231.609375 L 179.964844 225.203125 " fill-opacity="1" fill-rule="nonzero"/></g><g clip-path="url(#id16)"><path fill="#ff9e7a" d="M 187.652344 225.203125 L 194.0625 225.203125 L 194.0625 231.609375 L 187.652344 231.609375 L 187.652344 225.203125 " fill-opacity="1" fill-rule="nonzero"/></g><g clip-path="url(#id17)"><path fill="#ff9e7a" d="M 179.964844 232.957031 L 186.371094 232.957031 L 186.371094 239.363281 L 179.964844 239.363281 L 179.964844 232.957031 " fill-opacity="1" fill-rule="nonzero"/></g><g clip-path="url(#id18)"><path fill="#ff9e7a" d="M 187.652344 232.957031 L 194.0625 232.957031 L 194.0625 239.363281 L 187.652344 239.363281 L 187.652344 232.957031 " fill-opacity="1" fill-rule="nonzero"/></g></svg>